# xmcd
#
# Track frame offsets:
#	150
#	15635
#	32754
#	53684
#	69584
#	86227
#	113559
#	133755
#	152042
#	171558
#	186100
#	201523
#	217479
#	238239
#
# Disc length: 3376 seconds
#
# Revision: 0
# Processed by: cddbd v1.5.2PL0 Copyright (c) Steve Scherf et al.
# Submitted via: EZCDAudioConverter 2.0.7.1
#
DISCID=d50d2e0e
DTITLE=Johnny Mathis - Life Is A Song Worth Singing - The Complete Thom Bell S
DTITLE=essions [CD1]
DYEAR=2015
DGENRE=Soul
TTITLE0=I'm Coming Home
TTITLE1=I'd Rather Be Here With You
TTITLE2=Foolish
TTITLE3=I'm Stone In Love With You
TTITLE4=And I Think That's What I'll Do
TTITLE5=Life Is A Song Worth Singing
TTITLE6=A Baby's Born
TTITLE7=Sweet Child
TTITLE8=Stop, Look, Listen (To Your Heart)
TTITLE9=I Just Wanted To Be Me
TTITLE10=I'm Coming Home (Steroe Single Version)
TTITLE11=I'm Stone In Love With You (Instrumental Version)
TTITLE12=And I Think That's What I'll Do (Instrumental Version)
TTITLE13=Life Is A Song Worth Singing (Mono Single Edit)
EXTD=
EXTT0=
EXTT1=
EXTT2=
EXTT3=
EXTT4=
EXTT5=
EXTT6=
EXTT7=
EXTT8=
EXTT9=
EXTT10=
EXTT11=
EXTT12=
EXTT13=
PLAYORDER=
